<?xml version="1.0" encoding="utf-8"?>
<!-- Generator: Adobe Illustrator 16.0.0, SVG Export Plug-In . SVG Version: 6.00 Build 0)  -->
<!DOCTYPE svg PUBLIC "-//W3C//DTD SVG 1.1//EN" "http://www.w3.org/Graphics/SVG/1.1/DTD/svg11.dtd">
<svg version="1.1" xmlns="http://www.w3.org/2000/svg" xmlns:xlink="http://www.w3.org/1999/xlink" x="0px" y="0px"
	 width="387.502px" height="276.73px" viewBox="0 0 387.502 276.73" enable-background="new 0 0 387.502 276.73"
	 xml:space="preserve">
<g id="bg">
</g>
<g id="Layer_8">
</g>
<g id="Layer_7">
</g>
<g id="Layer_9">
</g>
<g id="Layer_10">
</g>
<g id="Layer_4">
</g>
<g id="Layer_2">
	<g>
		<g opacity="0.55">
			<path fill="#1D1D1B" d="M51.514,251.562l-0.012,15.033l-50.498-0.042L1,276.425l173.984,0.134l39.361,0.032l173.985,0.14
				l0.007-9.887l-50.494-0.037l0.01-15.032l34.992,0.021c8.526,0.012,15.503-6.969,15.516-15.49L388.502,46.4
				c0.01-8.534-6.967-15.511-15.497-15.522l-41.312-0.029l9.028-15.179l19.824,0.023L355.733,0.24l-36.97-0.02l-4.834,15.429
				l15.674,0.011l-9.013,15.177L200.152,30.76l0.017-15.192l20.413,0.012l-4.81-15.443l-41.804-0.028l-4.833,15.43l20.421,0.019
				l-0.015,15.192L69.111,30.657L60.113,15.47l15.677,0.009L70.982,0.029L34.012,0l-4.844,15.438l19.83,0.022l8.991,15.188
				l-41.306-0.027C8.156,30.612,1.178,37.586,1.178,46.108L1.035,236.024c-0.014,8.521,6.957,15.504,15.484,15.513L51.514,251.562z
				 M59.59,266.606L59.59,266.606l0.011-15.044l270.168,0.202l-0.009,15.033L59.59,266.606z M36.384,226.293
				c-5.568,0-10.1-4.539-10.094-10.093l0.112-150.237c0-5.554,4.545-10.093,10.107-10.093l316.646,0.241
				c5.56,0,10.094,4.544,10.089,10.102l-0.107,150.237c-0.005,5.56-4.551,10.091-10.109,10.079L36.384,226.293z"/>
		</g>
		<g>
			
				<linearGradient id="SVGID_1_" gradientUnits="userSpaceOnUse" x1="7887.791" y1="7954.6631" x2="7469.0366" y2="7476.9302" gradientTransform="matrix(-1 0 0 -1 7831.0039 7825.8613)">
				<stop  offset="0" style="stop-color:#4D4D4D"/>
				<stop  offset="1" style="stop-color:#1A1A1A"/>
			</linearGradient>
			<path fill="url(#SVGID_1_)" d="M50.514,251.562l-0.012,15.033l-50.498-0.042L0,276.425l173.984,0.134l39.361,0.032l173.985,0.14
				l0.007-9.887l-50.494-0.037l0.01-15.032l34.992,0.021c8.526,0.012,15.503-6.969,15.516-15.49L387.502,46.4
				c0.01-8.534-6.967-15.511-15.497-15.522l-41.312-0.029l9.028-15.179l19.824,0.023L354.733,0.24l-36.97-0.02l-4.834,15.429
				l15.674,0.011l-9.013,15.177L199.152,30.76l0.017-15.192l20.413,0.012l-4.81-15.443l-41.804-0.028l-4.833,15.43l20.421,0.019
				l-0.015,15.192L68.111,30.657L59.113,15.47l15.677,0.009L69.982,0.029L33.012,0l-4.844,15.438l19.83,0.022l8.991,15.188
				l-41.306-0.027C7.156,30.612,0.178,37.586,0.178,46.108L0.035,236.024c-0.014,8.521,6.957,15.504,15.484,15.513L50.514,251.562z
				 M58.59,266.606L58.59,266.606l0.011-15.044l270.168,0.202l-0.009,15.033L58.59,266.606z M35.384,226.293
				c-5.568,0-10.1-4.539-10.094-10.093l0.112-150.237c0-5.554,4.545-10.093,10.107-10.093l316.646,0.241
				c5.56,0,10.094,4.544,10.089,10.102l-0.107,150.237c-0.005,5.56-4.551,10.091-10.109,10.079L35.384,226.293z"/>
		</g>
	</g>
	
		<linearGradient id="SVGID_2_" gradientUnits="userSpaceOnUse" x1="16914.2227" y1="-5612.4521" x2="16914.2227" y2="-5543.3018" gradientTransform="matrix(-1 -7.000000e-04 -7.000000e-04 1 17246.7441 5634.999)">
		<stop  offset="0.5952" style="stop-color:#F0CA44;stop-opacity:0.5"/>
		<stop  offset="1" style="stop-color:#FFFFFF;stop-opacity:0.1"/>
	</linearGradient>
	<polygon fill="url(#SVGID_2_)" points="359.545,15.747 367.539,75.806 305.273,75.765 312.926,15.706 	"/>
	
		<linearGradient id="SVGID_3_" gradientUnits="userSpaceOnUse" x1="17056.0039" y1="-5612.46" x2="17056.0039" y2="-5543.3013" gradientTransform="matrix(-1 -7.000000e-04 -7.000000e-04 1 17246.7441 5634.999)">
		<stop  offset="0.5952" style="stop-color:#F0CA44;stop-opacity:0.5"/>
		<stop  offset="1" style="stop-color:#FFFFFF;stop-opacity:0.1"/>
	</linearGradient>
	<polygon fill="url(#SVGID_3_)" points="219.732,15.638 227.725,75.71 161.523,75.655 169.177,15.598 	"/>
	
		<linearGradient id="SVGID_4_" gradientUnits="userSpaceOnUse" x1="17198.7695" y1="-5612.458" x2="17198.7695" y2="-5543.3086" gradientTransform="matrix(-1 -7.000000e-04 -7.000000e-04 1 17246.7441 5634.999)">
		<stop  offset="0.5952" style="stop-color:#F0CA44;stop-opacity:0.5"/>
		<stop  offset="1" style="stop-color:#FFFFFF;stop-opacity:0.1"/>
	</linearGradient>
	<polygon fill="url(#SVGID_4_)" points="74.002,15.537 82.012,75.596 21.707,75.56 29.362,15.502 	"/>
</g>
<g id="Layer_12">
</g>
<g id="Layer_11">
</g>
<g id="Layer_13">
</g>
</svg>
