<?xml version="1.0" encoding="utf-8"?>
<!DOCTYPE svg PUBLIC "-//W3C//DTD SVG 1.1//EN" "http://www.w3.org/Graphics/SVG/1.1/DTD/svg11.dtd">
<svg version="1.1" xmlns="http://www.w3.org/2000/svg" xmlns:xlink="http://www.w3.org/1999/xlink" x="0px" y="0px"
	 width="194.427px" height="119.227px" viewBox="-10 -10 210 140"
	 xml:space="preserve">
<g>
	
		<path id="nav-track" fill="none" stroke="rgba(255,255,255,0.8)" stroke-width="10" stroke-linecap="round" stroke-linejoin="round" stroke-miterlimit="10" d="
		M44.471,17.631c-1.856-1.856-3.004-4.42-3.004-7.251c0-5.664,4.592-10.255,10.255-10.255h105.155c3.464,0,6.633,1.263,9.07,3.353
		l26.986,26.979c0.829,0.814,1.344,1.949,1.344,3.203c0,1.211-0.479,2.311-1.26,3.119l-16.094,16.04
		c-1.693,1.694-1.67,4.464,0.053,6.187c1.723,1.723,4.492,1.747,6.187,0.053l3.644-3.528c1.694-1.694,4.464-1.67,6.187,0.053
		c1.724,1.723,1.747,4.493,0.053,6.187l-49.197,49.208c-5.053,5.021-12.016,8.125-19.702,8.125h-73.61
		c-7.688,0-14.649-3.103-19.703-8.125L2.441,82.538c-1.436-1.516-2.316-3.562-2.316-5.814V38.645
		c0-5.596,4.537-10.132,10.133-10.132c2.819,0,5.37,1.151,7.207,3.01l20.272,20.271c0.614,0.601,0.994,1.439,0.994,2.367
		c0,0.95-0.399,1.807-1.04,2.411l-2.652,2.673c-1.606,1.618-2.6,3.847-2.6,6.308c0,4.944,4.008,8.952,8.953,8.952
		c2.434,0,4.641-0.971,6.255-2.548l8.893-8.882c0.921-0.925,2.196-1.498,3.604-1.498c1.521,0,2.885,0.667,3.817,1.726l16.746,16.712
		c1.681,1.72,4.026,2.788,6.621,2.788c5.111,0,9.254-4.143,9.254-9.254c0-2.555-1.036-4.869-2.71-6.543L44.471,17.631z"/>
</g>

</svg>
