<?xml version="1.0" encoding="utf-8"?>
<!-- Generator: Adobe Illustrator 16.0.0, SVG Export Plug-In . SVG Version: 6.00 Build 0)  -->
<!DOCTYPE svg PUBLIC "-//W3C//DTD SVG 1.1//EN" "http://www.w3.org/Graphics/SVG/1.1/DTD/svg11.dtd">
<svg version="1.1" xmlns="http://www.w3.org/2000/svg" xmlns:xlink="http://www.w3.org/1999/xlink" x="0px" y="0px" width="53px"
	 height="32px" viewBox="0 0 53 32" enable-background="new 0 0 53 32" xml:space="preserve">
<g id="Layer_4" display="none">
</g>
<g id="_x32_" display="none">
</g>
<g id="_x35_" display="none">
</g>
<g id="_x31_" display="none">
</g>
<g id="bg">
</g>
<g id="Layer_5">
</g>
<g id="Layer_22">
</g>
<g id="Layer_23">
</g>
<g id="Layer_13">
	<rect fill="#8DC53F" width="53" height="32"/>
	<path opacity="0.5" fill="#78A836" d="M13.182,7.57c0.603,1.523-0.924,3.555-0.924,3.555s-2.503-0.436-3.105-1.959
		c-0.604-1.522-0.189-3.113,0.924-3.555C11.188,5.172,12.578,6.049,13.182,7.57z"/>
	<path opacity="0.5" fill="#78A836" d="M10.622,13.504c-0.187-1.268,0.856-2.471,0.856-2.471s1.348,0.852,1.534,2.117
		c0.187,1.268-0.197,2.374-0.856,2.472C11.495,15.719,10.809,14.771,10.622,13.504z"/>
	<path opacity="0.5" fill="#78A836" d="M8.371,10.354c1.523-0.601,3.393,0.521,3.393,0.521s-0.6,2.095-2.123,2.696
		c-1.523,0.601-3.042,0.367-3.393-0.521S6.848,10.955,8.371,10.354z"/>
	<path opacity="0.5" fill="#78A836" d="M13.17,13.477c-1.434-0.792-1.759-2.947-1.759-2.947s1.997-0.871,3.431-0.078
		c1.434,0.791,2.221,2.11,1.76,2.946C16.14,14.232,14.604,14.269,13.17,13.477z"/>
	<path opacity="0.5" fill="#78A836" d="M28.931,23.521c0.007-0.896,1.198-1.611,1.198-1.611s1.18,0.734,1.172,1.631
		c-0.007,0.896-0.543,1.617-1.198,1.611C29.448,25.147,28.924,24.418,28.931,23.521z"/>
	<path opacity="0.5" fill="#78A836" d="M32.881,22.854c-1.375,0.037-2.521-1.15-2.521-1.15s1.081-1.246,2.456-1.283
		c1.376-0.037,2.503,0.479,2.522,1.15C35.355,22.242,34.255,22.816,32.881,22.854z"/>
	<path opacity="0.5" fill="#78A836" d="M29.715,20.139c0.91,0.707,0.901,2.242,0.901,2.242s-1.484,0.388-2.396-0.32
		c-0.91-0.707-1.314-1.711-0.902-2.242C27.73,19.288,28.805,19.432,29.715,20.139z"/>
	<path opacity="0.5" fill="#78A836" d="M47.849,13.503c-0.47,0.763-1.86,0.758-1.86,0.758s-0.627-1.239-0.156-2.002
		c0.47-0.763,1.303-1.103,1.859-0.759S48.318,12.74,47.849,13.503z"/>
	<path opacity="0.5" fill="#78A836" d="M44.124,12.027c1.195,0.682,1.56,2.291,1.56,2.291s-1.569,0.506-2.765-0.176
		c-1.196-0.682-1.894-1.706-1.561-2.291C41.691,11.268,42.93,11.347,44.124,12.027z"/>
	<path opacity="0.5" fill="#78A836" d="M45.426,15.99c-0.413-1.077,0.391-2.385,0.391-2.385s1.471,0.438,1.883,1.514
		c0.412,1.078,0.236,2.146-0.391,2.386C46.682,17.746,45.838,17.066,45.426,15.99z"/>
</g>
<g id="Layer_18">
</g>
<g id="_x34_">
</g>
<g id="Layer_16" display="none">
</g>
<g id="Layer_17" display="none">
</g>
<g id="石頭">
</g>
<g id="白色外框">
</g>
<g id="彩色外框">
</g>
<g id="轉彎警告">
</g>
<g id="track">
</g>
<g id="Layer_15">
</g>
<g id="Layer_21">
</g>
<g id="Layer_2">
</g>
<g id="Layer_11" display="none">
	
		<rect x="-1058.5" y="-1112.5" display="inline" opacity="0.3" stroke="#000000" stroke-miterlimit="10" width="1072" height="1278"/>
</g>
<g id="Layer_12" display="none">
</g>
</svg>
