<?xml version="1.0" encoding="utf-8"?>
<!-- Generator: Adobe Illustrator 16.0.0, SVG Export Plug-In . SVG Version: 6.00 Build 0)  -->
<!DOCTYPE svg PUBLIC "-//W3C//DTD SVG 1.1//EN" "http://www.w3.org/Graphics/SVG/1.1/DTD/svg11.dtd">
<svg version="1.1" xmlns="http://www.w3.org/2000/svg" xmlns:xlink="http://www.w3.org/1999/xlink" x="0px" y="0px" width="213px"
	 height="138px" viewBox="0 0 213 138" enable-background="new 0 0 213 138" xml:space="preserve">
<g id="Layer_1">
	<g>
		<defs>
			<rect id="SVGID_831_" x="-1189" y="2629" width="1024" height="768"/>
		</defs>
		<clipPath id="SVGID_2_">
			<use xlink:href="#SVGID_831_"  overflow="visible"/>
		</clipPath>
		<g clip-path="url(#SVGID_2_)">
			<g>
				<g>
					<polygon fill="#8DBF43" points="1744.729,3493.608 -2757.721,3491.088 -2755.83,93.701 1746.62,96.218 					"/>
					<g>
						<path opacity="0.5" fill="#78A735" d="M100.788,133.915c2.629,6.671-4.064,15.562-4.064,15.562s-10.949-1.912-13.582-8.586
							c-2.638-6.666-0.821-13.627,4.051-15.559C92.059,123.413,98.146,127.251,100.788,133.915z"/>
					</g>
				</g>
			</g>
		</g>
	</g>
</g>
<g id="Layer_10" display="none">
</g>
<g id="Layer_1_copy" display="none">
</g>
<g id="car" display="none">
</g>
<g id="Layer_4" display="none">
</g>
<g id="Layer_6" display="none">
	<g display="inline">
		<defs>
			<rect id="SVGID_2246_" x="1669" y="1043" width="1024" height="768"/>
		</defs>
		<clipPath id="SVGID_3_">
			<use xlink:href="#SVGID_2246_"  overflow="visible"/>
		</clipPath>
		<g clip-path="url(#SVGID_3_)">
			<g>
				<g>
					<polygon fill="#8DBF43" points="-666.662,-1292.302 3835.788,-1289.781 3833.897,2107.605 -668.553,2105.089 					"/>
					<g>
						<path opacity="0.5" fill="#78A735" d="M213.41,35.908c-0.026,3.925-5.25,7.058-5.25,7.058s-5.154-3.219-5.119-7.145
							c0.029-3.922,2.379-7.079,5.253-7.053C211.15,28.793,213.448,31.985,213.41,35.908z"/>
						<path opacity="0.5" fill="#78A735" d="M196.116,38.824c6.022-0.15,11.04,5.046,11.04,5.046s-4.734,5.447-10.757,5.607
							c-6.022,0.163-10.954-2.1-11.04-5.038C185.282,41.497,190.102,38.983,196.116,38.824z"/>
						<path opacity="0.5" fill="#78A735" d="M209.974,50.718c-3.978-3.098-3.944-9.814-3.944-9.814s6.501-1.696,10.49,1.41
							c3.979,3.095,5.748,7.49,3.948,9.814C218.664,54.448,213.956,53.812,209.974,50.718z"/>
						<path opacity="0.5" fill="#78A735" d="M130.581,79.723c2.049-3.336,8.141-3.316,8.141-3.316s2.735,5.435,0.669,8.772
							c-2.049,3.338-5.7,4.82-8.131,3.312C128.82,86.986,128.51,83.062,130.581,79.723z"/>
						<path opacity="0.5" fill="#78A735" d="M146.87,86.192c-5.224-2.989-6.816-10.033-6.816-10.033s6.868-2.209,12.1,0.78
							c5.241,2.982,8.283,7.472,6.826,10.026C157.52,89.526,152.103,89.179,146.87,86.192z"/>
						<path opacity="0.5" fill="#78A735" d="M141.183,68.838c1.813,4.722-1.71,10.442-1.71,10.442s-6.443-1.916-8.248-6.629
							c-1.804-4.725-1.021-9.394,1.719-10.441C135.693,61.149,139.388,64.13,141.183,68.838z"/>
						<path opacity="0.5" fill="#78A735" d="M50.304,105.647c-2.63-6.664,4.05-15.555,4.05-15.555s10.955,1.906,13.592,8.584
							c2.642,6.661,0.821,13.624-4.051,15.558C59.023,116.155,52.945,112.31,50.304,105.647z"/>
						<path opacity="0.5" fill="#78A735" d="M61.523,79.681c0.816,5.549-3.754,10.816-3.754,10.816s-5.898-3.732-6.71-9.274
							c-0.825-5.546,0.863-10.396,3.754-10.816C57.705,69.981,60.707,74.13,61.523,79.681z"/>
						<path opacity="0.5" fill="#78A735" d="M71.369,93.478c-6.675,2.626-14.854-2.285-14.854-2.285s2.628-9.171,9.304-11.799
							c6.667-2.631,13.316-1.604,14.854,2.289C82.199,85.57,78.045,90.854,71.369,93.478z"/>
						<path opacity="0.5" fill="#78A735" d="M50.368,79.792c6.275,3.471,7.688,12.913,7.688,12.913s-8.74,3.806-15.013,0.329
							c-6.28-3.467-9.722-9.238-7.698-12.902C37.369,76.476,44.1,76.32,50.368,79.792z"/>
					</g>
				</g>
				<polygon fill="#BCB17C" points="628.082,-1091 2831.349,-1091 3730,-258.07 3730,907.771 2658.583,1698 141.466,1698 
					-577,1015.905 -577,130.542 				"/>
				<g>
					<g opacity="0.55">
						<path fill="#1D1E1C" d="M197.502,0.343c14.403,0.257,18.849-2.618,25.06-16.175l4.959-5.262
							c0.248-8.965-0.989-14.365-5.967-25.409c-4.679-10.606-10.297-22.351-16.166-25.06c-0.485-0.201-8.998-0.324-20.455,0.689
							c-11.595,1.496-17.854,1.547-20.431,0.646l-14.493,26.058c-1.393,2.972,9.137,29.398,11.217,30.33
							C177.923-6.148,188.593,0.093,197.502,0.343z"/>
					</g>
					<g>
						<path fill="#D8D897" d="M197.302,0.143c14.403,0.257,18.849-2.618,25.06-16.175l4.959-5.262
							c0.248-8.965-0.989-14.365-5.967-25.409c-4.679-10.606-10.297-22.351-16.166-25.06c-0.485-0.201-8.998-0.324-20.455,0.689
							c-11.595,1.496-17.854,1.547-20.431,0.646l-14.493,26.058c-1.393,2.972,9.137,29.398,11.217,30.33
							C177.723-6.349,188.393-0.107,197.302,0.143z"/>
					</g>
				</g>
				<g>
					<g opacity="0.55">
						<path fill="#1D1E1C" d="M217.699,130.483c-6.374,0.984-8.041,5.628-9.098-1.615l-5.859-19.825l21.423-14.982
							c7.548-1.122,11.594,2.659,16.611,12.341l-12.346,16.6C225.243,124.735,219.95,130.149,217.699,130.483z"/>
					</g>
					<g>
						<path fill="#B19472" d="M217.499,130.283c-6.374,0.984-8.041,5.628-9.098-1.615l-5.859-19.825l21.423-14.982
							c7.548-1.122,11.594,2.659,16.611,12.341l-12.346,16.6C225.043,124.535,219.75,129.949,217.499,130.283z"/>
					</g>
				</g>
				<g>
					<g opacity="0.55">
						<path fill="#1D1E1C" d="M11.766,169.063c3.65-5.019,4.179-11.706,3.239-18.215c-0.508-3.394-4.932-6.409-7.502-10.726
							c0,0-19.266-13.643-27.328-4.854c-8.067,8.794,4.261,28.937,4.261,28.937c7.204,9.029,10.946,13.175,16.591,12.346
							C5.536,175.88,8.019,174.102,11.766,169.063z"/>
					</g>
					<g>
						<path fill="#D8D897" d="M11.565,168.863c3.65-5.019,4.179-11.706,3.239-18.215c-0.508-3.394-4.932-6.409-7.502-10.726
							c0,0-19.266-13.643-27.328-4.854c-8.067,8.794,4.261,28.937,4.261,28.937c7.204,9.029,10.946,13.175,16.591,12.346
							C5.336,175.68,7.818,173.901,11.565,168.863z"/>
					</g>
				</g>
				<g>
					<g opacity="0.55">
						<path fill="#1D1E1C" d="M60.513,88.508l0.614-2.021c-0.168-1.1,7.763-7.741,12.35-16.573c2.345-4.221-0.97-4.876,1.61-9.115
							c-1.039-6.848-6.236-8.883-16.593-12.336c-10.396-3.472-25.083-8.15-36.423-6.469c-3.056,0.438-6.466,4.543-10.711,7.486
							L0.622,56.977l-1.62,9.086C2.083,78.85,13.689,85.589,13.981,87.527c1.812,4.721,8.815,9.411,16.604,12.354
							c7.83,2.874,10.236,4.381,18.209,3.23C57.833,101.755,61.394,94.58,60.513,88.508z"/>
					</g>
					<g>
						<path fill="#B19472" d="M60.312,88.308l0.614-2.021c-0.168-1.1,7.763-7.741,12.35-16.573c2.345-4.221-0.97-4.876,1.61-9.115
							c-1.039-6.848-6.236-8.883-16.593-12.336c-10.396-3.472-25.083-8.15-36.423-6.469c-3.056,0.438-6.466,4.543-10.711,7.486
							L0.422,56.776l-1.62,9.086c3.081,12.787,14.688,19.526,14.979,21.465c1.812,4.721,8.815,9.411,16.604,12.354
							c7.83,2.874,10.236,4.381,18.209,3.23C57.633,101.555,61.193,94.38,60.312,88.308z"/>
					</g>
				</g>
				<g>
					<g opacity="0.55">
						<path fill="#1D1E1C" d="M138.066,129.721l-18.222-3.237c-4.832,3.867-9.435,7.951-12.346,16.612l5.876,19.819
							c0,0,13.6,17.367,28.957-4.248C157.681,137.057,138.066,129.721,138.066,129.721z"/>
					</g>
					<g>
						<path fill="#D8D897" d="M137.866,129.521l-18.222-3.237c-4.832,3.867-9.435,7.951-12.346,16.612l5.876,19.819
							c0,0,13.6,17.367,28.957-4.248C157.48,136.856,137.866,129.521,137.866,129.521z"/>
					</g>
				</g>
				<path fill="#4D4E53" d="M-506.051,326.763c0.193,22.377,4.617,44.215,13.157,64.912c8.823,21.375,21.634,40.557,38.077,57.003
					c16.633,16.629,36.041,29.538,57.699,38.361c20.968,8.549,43.068,12.878,65.69,12.878c22.268,0,43.97-4.201,64.512-12.49
					c21.16-8.541,40.122-21.027,56.368-37.129c0,0,8.38,7.822,7.396,8.84l-252.065,250.968c-0.391,0.383-0.769,0.772-1.147,1.168
					c-15.438,15.993-27.548,34.493-36.001,54.994c-8.759,21.259-13.206,43.755-13.206,66.853c0,23.928,4.756,47.162,14.137,69.062
					c8.979,20.958,21.768,39.727,38.026,55.779L93.191,1504.41c1.521,1.524,3.105,2.997,4.742,4.402
					c32.545,27.901,69.311,49.63,109.273,64.708c41.385,15.602,84.96,23.479,129.498,23.479h2130.628
					c39.42,0,77.704-7.696,113.789-22.964c34.811-14.727,66.06-35.782,92.873-62.601c26.813-26.811,47.876-58.044,62.6-92.853
					c15.262-36.086,23.003-74.36,23.003-113.776c0-39.42-7.741-77.702-23.003-113.786c-14.724-34.812-35.786-66.059-62.618-92.889
					L1673.019,97.798c-19.461-19.461-30.178-45.332-30.178-72.85c0-27.522,10.717-53.399,30.178-72.858
					c19.458-19.461,45.33-30.172,72.852-30.172c27.979,0,54.156,11.022,73.714,31.045c0.249,0.252,0.5,0.511,0.757,0.763
					l337.676,336.984c35.506,38.982,85.859,61.277,138.66,61.277c25.354,0,49.99-5,73.224-14.859
					c22.319-9.471,42.341-22.998,59.509-40.199l179.792-179.584c18.171-17.613,42.103-27.312,67.432-27.312
					c25.884,0,50.222,10.078,68.522,28.386c18.305,18.301,28.385,42.64,28.385,68.521c0,25.762-9.995,50.008-28.142,68.279
					c-0.011,0.01-52.947,53.37-52.947,53.37c-14.274,13.755-25.557,29.912-33.547,48.038c-8.526,19.348-12.852,39.912-12.852,61.133
					c0,20.7,4.124,40.809,12.255,59.76c7.768,18.103,18.819,34.302,32.859,48.156l410.401,410.359
					c26.584,26.846,57.63,47.945,92.276,62.727c36.01,15.356,74.236,23.146,113.62,23.146c39.084,0,77.037-7.678,112.82-22.808
					c34.516-14.604,65.487-35.48,92.075-62.071c26.584-26.587,45.862-57.567,60.462-92.088
					c15.135-35.776,21.178-73.739,21.178-112.824V-39.418c0-65.735-23.27-128.212-68.479-175.915
					c-0.502-0.533-0.174-1.058-0.689-1.578c0,0-575.031-576.401-575.111-576.479c-29.404-29.22-61.536-55.735-95.896-78.831
					c-34.712-23.327-71.714-43.358-110.166-59.55c-39.186-16.495-80.128-28.406-121.796-36.893
					C2579.16-977.368,2535.283-981,2491.36-981H999.879c-43.922,0-87.846,3.632-130.545,12.337
					c-41.668,8.486-82.666,20.755-121.852,37.251c-38.455,16.193-75.552,36.046-110.266,59.376
					c-34.356,23.089-66.686,49.516-96.09,78.732c-0.069,0.07-997.009,997.2-997.009,997.2
					c-16.556,16.557-29.331,35.92-37.965,57.605C-502.138,282.305-506.244,304.249-506.051,326.763z M-263.556,250.477
					l923.858-924.098c21.783-21.638,45.727-41.276,71.166-58.37c25.696-17.268,53.141-31.803,81.578-43.777
					C872.203-800.667,935.058-813,999.879-813H2491.36c64.824,0,127.686,12.333,186.832,37.231
					c28.439,11.975,55.889,26.651,81.584,43.921c25.425,17.088,49.361,36.645,71.138,58.27L3404.49-98.412
					c14.941,16.096,22.51,36.987,22.51,58.994v771.534c0,32.277-11.92,62.618-34.74,85.441
					c-22.822,22.816-52.842,35.388-85.109,35.388c-32.545,0-62.902-12.75-85.781-35.896c-0.119-0.119-0.153-0.239-0.274-0.356
					l-398.962-398.959l43.165-43.49l-0.019,0.033c24.193-24.365,43.197-52.711,56.476-84.264
					c13.763-32.701,20.744-67.381,20.744-103.074c0-35.856-7.038-70.68-20.924-103.512c-13.396-31.669-32.556-60.094-56.943-84.483
					c-24.392-24.392-52.817-43.545-84.484-56.943c-32.833-13.89-67.66-20.929-103.515-20.929c-35.304,0-69.635,6.834-102.046,20.314
					c-31.259,12.997-59.431,31.623-83.727,55.358c-0.223,0.219-0.446,0.442-0.668,0.661c0,0-180.305,180.093-180.362,180.152
					c-2.481,2.491-6.781,5.467-13.153,5.467c-7.294,0-11.871-3.96-13.951-6.322c-1.197-1.356-2.437-2.68-3.719-3.956
					l-338.984-338.284c-24.944-25.421-54.128-45.428-86.754-59.457c-34.018-14.631-70.153-22.053-107.398-22.053
					c-36.681,0-72.311,7.203-105.896,21.414c-32.398,13.703-61.477,33.299-86.434,58.252
					c-24.949,24.949-44.555,54.031-58.249,86.431c-14.211,33.587-21.414,69.216-21.414,105.897c0,36.68,7.203,72.312,21.414,105.896
					c13.694,32.4,33.3,61.479,58.257,86.428L2554.54,1217.647c23.269,23.269,36.095,54.229,36.095,87.168
					c0,32.934-12.826,64.842-36.115,88.133c-23.286,23.283-54.249,37.052-87.187,37.052H336.705
					c-24.099,0-47.613-5.196-69.874-13.599c-20.61-7.766-39.661-19.351-56.673-33.509l-544.292-544.376
					c-0.176-0.172-0.348-0.465-0.523-0.637c-1.951-1.916-1.951-4.022-1.951-4.702c0-0.617,0-2.471,1.573-4.275
					c0,0,325.256-324.173,325.293-324.208c16.548-16.553,29.323-35.945,37.966-57.632c8.282-20.808,12.394-42.774,12.199-65.292
					c-0.188-22.372-4.614-44.213-13.157-64.908c-8.819-21.381-21.633-40.561-38.076-57.005
					c-16.629-16.633-36.046-29.536-57.7-38.363c-20.967-8.544-43.069-12.878-65.694-12.878c-22.265,0-43.971,4.201-64.512,12.486
					c-21.16,8.54-40.117,21.031-56.364,37.131C-255.081,258.233-264.562,251.481-263.556,250.477z"/>
				
					<path fill="none" stroke="#FFFFFF" stroke-width="5" stroke-linecap="square" stroke-linejoin="round" stroke-miterlimit="10" stroke-dasharray="20,40" d="
					M2614.258,1157.892c37.603,37.6,60.856,89.547,60.856,146.924c0,114.755-93.027,207.78-207.781,207.78H336.705
					c-70.179,0-134.382-25.584-183.786-67.938l-546.784-546.629c-16.805-16.51-27.227-39.49-27.227-64.908
					c0-24.541,9.713-46.814,25.513-63.18l326.093-325c34.323-34.32,33.85-90.44-1.061-125.346
					c-34.911-34.912-91.029-35.39-125.352-1.066l-73.83,71.477c-34.322,34.32-90.441,33.846-125.352-1.066
					c-34.908-34.905-35.388-91.029-1.066-125.352l996.82-997.052c102.393-101.742,243.461-164.61,399.205-164.61H2491.36
					c155.751,0,296.816,62.868,399.21,164.61l575.264,576.238c29.097,30.706,46.943,72.176,46.943,117.809v771.534
					c0,113.389-91.919,205.308-205.309,205.308c-57.129,0-108.807-23.334-146.023-60.991l-410.764-410.717
					c-12.434-12.188-20.146-29.173-20.146-47.957c0-19.254,8.102-36.612,21.085-48.86l53.725-54.151
					c32.559-32.787,52.676-77.947,52.676-127.809c0-100.174-81.207-181.385-181.388-181.385c-49.318,0-94.041,19.684-126.739,51.627
					l-180.189,179.975c-18.656,18.746-44.488,30.348-73.027,30.348c-30.811,0-58.465-13.521-77.346-34.957l-339.312-338.615
					c-34.046-34.858-81.572-56.496-134.148-56.496c-103.56,0-187.51,83.95-187.51,187.512c0,51.779,20.987,98.658,54.922,132.59
					L2614.258,1157.892z"/>
				<path fill="none" stroke="#F1911A" stroke-width="5" stroke-miterlimit="10" d="M1294-981.5H999.879
					c-43.922,0-87.846,3.882-130.545,12.587c-41.668,8.486-82.666,20.88-121.852,37.376
					c-38.455,16.193-75.552,36.104-110.266,59.435c-34.356,23.093-66.686,49.555-96.09,78.768
					c-0.069,0.07-997.009,997.216-997.009,997.216c-16.556,16.557-29.331,35.928-37.965,57.613
					c-8.291,20.803-12.397,42.765-12.204,65.282c0.193,22.373,4.617,44.206,13.157,64.903c8.823,21.375,21.634,40.554,38.077,57.001
					c16.633,16.629,36.041,29.539,57.699,38.357c20.968,8.549,43.068,12.879,65.69,12.879c22.268,0,43.97-4.201,64.512-12.49
					c21.16-8.541,40.122-21.027,56.368-37.129c0,0,9.123,7.084,8.136,8.098l-252.805,251.71c-0.391,0.383-0.769,0.772-1.147,1.168
					c-15.438,15.993-27.548,34.493-36.001,54.994c-8.759,21.259-13.206,43.755-13.206,66.853c0,23.928,4.756,47.162,14.137,69.062
					c8.979,20.958,21.768,39.727,38.026,55.779l309.415,310.996"/>
				<path fill="none" stroke="#F1911A" stroke-width="5" stroke-miterlimit="10" d="M-22.365,1151.079l-312.248-312.726
					c-0.171-0.182-0.102-0.38-0.279-0.558c-1.955-1.911-1.834-3.988-1.834-4.661c0-0.619,0.055-2.452,1.631-4.249
					c0,0,325.289-324.166,325.322-324.201c16.555-16.557,29.342-35.947,37.979-57.633c8.285-20.799,12.401-42.766,12.213-65.283
					c-0.189-22.372-4.614-44.213-13.154-64.908c-8.823-21.381-21.631-40.559-38.074-57.004
					c-16.629-16.633-36.046-29.535-57.7-38.362c-20.967-8.544-43.069-12.878-65.694-12.878c-22.265,0-43.971,4.201-64.512,12.486
					c-21.16,8.54-40.117,21.031-56.364,37.131c0,0-7.083-9.148-6.077-10.15l921.461-921.704
					c21.783-21.638,45.727-41.276,71.166-58.37c25.696-17.268,53.141-32.053,81.578-44.027
					c59.156-24.898,122.011-37.481,186.832-37.481H1294"/>
				<g>
				</g>
			</g>
			<g>
				
					<rect x="-42.137" y="90.347" transform="matrix(-0.7066 0.7076 -0.7076 -0.7066 152.0625 199.1656)" fill="#F1911A" width="153.754" height="81.523"/>
				<g>
					<g opacity="0.55">
						<path fill="#1D1D1B" d="M-51.578,151.456c-2.586,2.59-2.582,6.822,0.008,9.409l57.648,57.565
							c2.595,2.581,6.821,2.581,9.408-0.005l12.521-12.542l1.882,7.336l-6.01,6.018l6.151,3.219l11.207-11.225l-3.226-6.146
							l-4.756,4.759l-1.877-7.337l36.509-36.562l4.609,4.603l-6.186,6.204l6.143,3.217l12.672-12.695l-3.221-6.142l-6.195,6.194
							l-4.609-4.602l36.509-36.561l7.343,1.87l-4.756,4.759l6.151,3.217l11.202-11.224l-3.221-6.148l-6.006,6.024l-7.346-1.865
							l12.518-12.549c2.591-2.584,2.586-6.816,0-9.402L65.84,43.278c-2.586-2.584-6.821-2.58-9.403,0.004L45.831,53.906
							l-4.562-4.558L56.57,34.021l-2.999-2.997L0.828,83.843l-46.551-46.492l-11.998,11.895l46.617,46.549l-52.734,52.818
							l2.998,2.994l15.305-15.33l4.566,4.558L-51.578,151.456z M3.836,86.838l34.976-35.031l4.566,4.554L8.398,91.396L3.836,86.838z
							 M-43.081,133.823l34.979-35.036l4.566,4.558l-34.984,35.031L-43.081,133.823L-43.081,133.823z M58.09,56.962
							c1.68-1.69,4.434-1.693,6.127-0.01l45.606,45.543c1.688,1.684,1.688,4.436,0,6.127l-95.987,96.127
							c-1.684,1.688-4.432,1.691-6.125,0.008l-45.603-45.542c-1.692-1.688-1.692-4.442-0.005-6.131L58.09,56.962z"/>
					</g>
					<g>
						
							<linearGradient id="SVGID_4_" gradientUnits="userSpaceOnUse" x1="6167.4199" y1="2733.7041" x2="5988.0942" y2="2529.1218" gradientTransform="matrix(-1 0 0 -1 6076.0664 2721.3105)">
							<stop  offset="0" style="stop-color:#4D4D4D"/>
							<stop  offset="1" style="stop-color:#1A1A1A"/>
						</linearGradient>
						<path fill="url(#SVGID_4_)" d="M-52.578,151.456c-2.586,2.59-2.582,6.822,0.008,9.409l57.648,57.565
							c2.595,2.581,6.821,2.581,9.408-0.005l12.521-12.542l1.882,7.336l-6.01,6.018l6.151,3.219l11.207-11.225l-3.226-6.146
							l-4.756,4.759l-1.877-7.337l36.509-36.562l4.609,4.603l-6.186,6.204l6.143,3.217l12.672-12.695l-3.221-6.142l-6.195,6.194
							l-4.609-4.602l36.509-36.561l7.343,1.87l-4.756,4.759l6.151,3.217l11.202-11.224l-3.221-6.148l-6.006,6.024l-7.346-1.865
							l12.518-12.549c2.591-2.584,2.586-6.816,0-9.402L64.84,43.278c-2.586-2.584-6.821-2.58-9.403,0.004L44.831,53.906
							l-4.562-4.558L55.57,34.021l-2.999-2.997L-0.172,83.843l-46.551-46.492l-11.998,11.895l46.617,46.549l-52.734,52.818
							l2.998,2.994l15.305-15.33l4.566,4.558L-52.578,151.456z M2.836,86.838l34.976-35.031l4.566,4.554L7.398,91.396L2.836,86.838z
							 M-44.081,133.823l34.979-35.036l4.566,4.558l-34.984,35.031L-44.081,133.823L-44.081,133.823z M57.09,56.962
							c1.68-1.69,4.434-1.693,6.127-0.01l45.606,45.543c1.688,1.684,1.688,4.436,0,6.127l-95.987,96.127
							c-1.684,1.688-4.432,1.691-6.125,0.008l-45.603-45.542c-1.692-1.688-1.692-4.442-0.005-6.131L57.09,56.962z"/>
					</g>
				</g>
				
					<linearGradient id="SVGID_5_" gradientUnits="userSpaceOnUse" x1="2108.0674" y1="1444.6504" x2="2108.0674" y2="1474.3217" gradientTransform="matrix(-0.7066 0.7076 -0.7076 -0.7066 2629.6328 -343.7206)">
					<stop  offset="0.5952" style="stop-color:#F0CA44;stop-opacity:0.5"/>
					<stop  offset="1" style="stop-color:#FFFFFF;stop-opacity:0.1"/>
				</linearGradient>
				<polygon fill="url(#SVGID_5_)" points="123.312,118.626 107.518,97.976 88.639,116.876 109.18,132.774 				"/>
			</g>
			<g>
				<g>
					<g opacity="0.55">
						<path fill="#1D1D1B" d="M158.781-63.688c-2.586,2.592-2.586,6.821,0.005,9.403l57.655,57.567
							c2.591,2.586,6.822,2.586,9.404-0.005l12.525-12.54l1.881,7.339l-6.013,6.018l6.151,3.217l11.212-11.224l-3.231-6.148
							l-4.75,4.762l-1.882-7.339l36.505-36.56l4.613,4.602l-6.194,6.201l6.15,3.215l12.673-12.691l-3.226-6.141l-6.19,6.192
							l-4.605-4.6l36.501-36.561l7.342,1.868l-4.751,4.76l6.151,3.218l11.202-11.224l-3.222-6.148l-6.014,6.021l-7.336-1.867
							l12.521-12.544c2.587-2.586,2.582-6.816-0.009-9.402l-57.651-57.571c-2.587-2.582-6.821-2.582-9.408,0.008l-10.605,10.62
							l-4.562-4.554l15.306-15.326l-2.998-2.998l-52.738,52.818l-46.552-46.496l-12.003,11.895l46.622,46.551l-52.742,52.817
							l3.002,2.997l15.31-15.332l4.558,4.559L158.781-63.688z M214.191-128.308l34.984-35.036l4.562,4.558l-34.983,35.035
							L214.191-128.308z M167.277-81.325l34.984-35.031l4.558,4.558L171.84-76.768L167.277-81.325L167.277-81.325z M268.445-158.188
							c1.688-1.688,4.438-1.688,6.129-0.005l45.604,45.542c1.688,1.687,1.693,4.443,0.01,6.127L224.2-10.396
							c-1.685,1.688-4.442,1.688-6.13,0.004l-45.611-45.537c-1.684-1.688-1.684-4.443,0-6.131L268.445-158.188z"/>
					</g>
					<g>
						
							<linearGradient id="SVGID_6_" gradientUnits="userSpaceOnUse" x1="5957.0635" y1="2948.8486" x2="5777.7378" y2="2744.2664" gradientTransform="matrix(-1 0 0 -1 6076.0664 2721.3105)">
							<stop  offset="0" style="stop-color:#4D4D4D"/>
							<stop  offset="1" style="stop-color:#1A1A1A"/>
						</linearGradient>
						<path fill="url(#SVGID_6_)" d="M157.781-63.688c-2.586,2.592-2.586,6.821,0.005,9.403l57.655,57.567
							c2.591,2.586,6.822,2.586,9.404-0.005l12.525-12.54l1.881,7.339l-6.013,6.018l6.151,3.217l11.212-11.224l-3.231-6.148
							l-4.75,4.762l-1.882-7.339l36.505-36.56l4.613,4.602l-6.194,6.201l6.15,3.215l12.673-12.691l-3.226-6.141l-6.19,6.192
							l-4.605-4.6l36.501-36.561l7.342,1.868l-4.751,4.76l6.151,3.218l11.202-11.224l-3.222-6.148l-6.014,6.021l-7.336-1.867
							l12.521-12.544c2.587-2.586,2.582-6.816-0.009-9.402l-57.651-57.571c-2.587-2.582-6.821-2.582-9.408,0.008l-10.605,10.62
							l-4.562-4.554l15.306-15.326l-2.998-2.998l-52.738,52.818l-46.552-46.496l-12.003,11.895l46.622,46.551l-52.742,52.817
							l3.002,2.997l15.31-15.332l4.558,4.559L157.781-63.688z M213.191-128.308l34.984-35.036l4.562,4.558l-34.983,35.035
							L213.191-128.308z M166.277-81.325l34.984-35.031l4.558,4.558L170.84-76.768L166.277-81.325L166.277-81.325z M267.445-158.188
							c1.688-1.688,4.438-1.688,6.129-0.005l45.604,45.542c1.688,1.687,1.693,4.443,0.01,6.127L223.2-10.396
							c-1.685,1.688-4.442,1.688-6.13,0.004l-45.611-45.537c-1.684-1.688-1.684-4.443,0-6.131L267.445-158.188z"/>
					</g>
				</g>
			</g>
		</g>
	</g>
</g>
<g id="Layer_7" display="none">
</g>
<g id="Layer_3" display="none">
</g>
<g id="Layer_11" display="none">
</g>
<g id="Layer_2" display="none">
</g>
<g id="Layer_9">
	<g>
		<polygon opacity="0.95" fill="#BCB17C" points="153.209,138 44.469,138 0,96.537 0,38.998 52.996,0 177.226,0 213,33.661 
			213,77.357 		"/>
		<rect x="62" y="5" fill="#FCC900" width="88" height="8"/>
		<path fill="#1F91CF" d="M51.324,68.57c0.704-0.679,1.262-1.477,1.655-2.371c0.421-0.955,0.635-1.97,0.635-3.017
			c0-1.021-0.204-2.014-0.604-2.95c-0.384-0.893-0.93-1.693-1.622-2.376L31.133,37.603l-6.018,5.784
			c0.031,0.031,0.065,0.058,0.097,0.089c0.005,0.006,0.011,0.012,0.017,0.018l19.693,19.69l-2.13,2.146l0.002-0.001
			c-1.194,1.203-2.132,2.602-2.787,4.159c-0.679,1.614-1.023,3.326-1.023,5.087c0,1.77,0.347,3.489,1.032,5.109
			c0.662,1.563,1.607,2.966,2.811,4.17c1.204,1.204,2.607,2.149,4.17,2.81c1.62,0.686,3.339,1.033,5.109,1.033
			c1.742,0,3.437-0.337,5.036-1.003c1.542-0.642,2.933-1.561,4.132-2.732c0.011-0.011,0.022-0.022,0.033-0.033
			c0,0,8.898-8.888,8.901-8.891c0.122-0.123,0.335-0.27,0.649-0.27c0.359,0,0.586,0.195,0.688,0.312
			c0.06,0.067,0.12,0.132,0.184,0.195L88.46,91.97c1.23,1.254,2.671,2.242,4.281,2.935c1.679,0.722,3.462,1.088,5.301,1.088
			c1.811,0,3.569-0.355,5.227-1.057c1.599-0.676,3.034-1.644,4.266-2.875s2.199-2.667,2.875-4.266
			c0.701-1.658,1.057-3.416,1.057-5.227c0-1.81-0.355-3.569-1.057-5.226c-0.676-1.599-1.644-3.035-2.876-4.266L58.131,23.704
			c-1.148-1.148-1.781-2.677-1.781-4.302s0.633-3.312,1.782-4.461c1.046-1.046,2.407-1.788,3.868-1.915V5.021
			c-1.791,0.051-3.534,0.406-5.182,1.103c-1.718,0.727-3.26,1.762-4.583,3.085s-2.363,2.862-3.09,4.58
			c-0.753,1.781-1.136,3.669-1.136,5.614c0,1.946,0.383,3.834,1.136,5.615c0.727,1.718,1.767,3.26,3.091,4.584l49.401,49.371
			c0.96,0.96,1.489,2.237,1.489,3.595c0,1.358-0.529,2.635-1.489,3.596c-0.961,0.96-2.237,1.489-3.596,1.489
			c-1.381,0-2.673-0.544-3.638-1.532c-0.013-0.012-0.025-0.025-0.038-0.038L77.701,69.452c-1.753-1.924-4.238-3.024-6.844-3.024
			c-1.252,0-2.468,0.247-3.614,0.733c-1.102,0.467-2.09,1.135-2.937,1.984l-8.874,8.863c-0.896,0.869-2.077,1.348-3.327,1.348
			c-1.278,0-2.479-0.498-3.383-1.401c-0.903-0.903-1.4-2.104-1.4-3.382c0-1.271,0.493-2.468,1.389-3.37
			C48.712,71.203,51.324,68.57,51.324,68.57z"/>
		<g>
			<path fill="#E4600D" d="M48.001,119.938c-1.254-0.843-2.436-1.818-3.511-2.885L16.146,88.662C15.41,87.867,15,86.831,15,85.745
				V47.667c0-1.593,0.623-3.09,1.75-4.216c1.127-1.126,2.626-1.747,4.218-1.747c1.533,0,2.974,0.579,4.084,1.625l5.987-5.726
				l0.027-0.061c-1.298-1.294-2.806-2.317-4.488-3.035c-1.777-0.758-3.664-1.143-5.607-1.143c-1.929,0-3.802,0.379-5.568,1.126
				c-1.703,0.721-3.231,1.751-4.544,3.063c-1.312,1.312-2.179,2.841-2.898,4.545C7.213,43.864,7,45.738,7,47.667v38.079
				c0,3.244,1.062,6.328,3.294,8.682c0.024,0.026-0.034,0.052-0.009,0.078c0,0,28.359,28.448,28.363,28.452
				c1.451,1.442,3.026,2.751,4.722,3.891c1.713,1.151,3.535,2.14,5.433,2.939c1.934,0.814,3.951,1.294,6.008,1.713
				c2.026,0.413,4.105,0.493,6.189,0.498V124l-0.003-0.006c-3.11-0.033-6.127-0.672-8.97-1.869
				C50.624,121.534,49.27,120.791,48.001,119.938z"/>
		</g>
		<path fill="#02539D" d="M150,13h17.59c1.189,0,2.35,0.368,3.448,0.783c1.018,0.383,1.958,1.011,2.798,1.709L184.73,26.4
			l6.402-5.328L179.608,9.551c-0.075-0.075-0.153-0.148-0.234-0.217c-1.606-1.376-3.421-2.44-5.393-3.184
			C171.938,5.379,169.788,5,167.59,5H150V13z"/>
		<path fill="#F1911A" d="M141.303,131.499c2.057-0.419,4.08-0.97,6.014-1.784c1.897-0.8,3.729-1.752,5.441-2.903
			c1.696-1.14,3.292-2.431,4.743-3.873c0.003-0.003,49.206-49.209,49.206-49.209c0.817-0.817,1.447-1.769,1.874-2.839
			c0.409-1.027,0.611-2.106,0.603-3.217c-0.01-1.104-0.229-2.183-0.649-3.204c-0.436-1.055-1.068-2.001-1.88-2.813
			c-0.82-0.821-1.778-1.458-2.848-1.894c-1.034-0.422-2.125-0.635-3.242-0.635c-1.099,0-2.17,0.207-3.184,0.616
			c-1.044,0.421-1.98,1.038-2.782,1.833c0,0-0.413-0.386-0.364-0.437l12.439-12.386c0.02-0.019,0.038-0.039,0.057-0.058
			c0.763-0.789,1.36-1.702,1.777-2.714c0.433-1.049,0.651-2.16,0.651-3.3c0-1.181-0.234-2.328-0.697-3.408
			c-0.443-1.035-1.074-1.961-1.877-2.753l-15.452-15.448L184.73,26.4l15.968,15.988c0.009,0.008,0.018,0.037,0.026,0.045
			c0.096,0.094,0.096,0.205,0.096,0.239c0,0.03,0,0.125-0.077,0.214c0,0-16.053,16.001-16.055,16.003
			c-0.816,0.817-1.447,1.775-1.874,2.845c-0.408,1.027-0.611,2.112-0.602,3.223c0.009,1.104,0.228,2.182,0.649,3.204
			c0.435,1.055,1.067,2.002,1.879,2.813c0.82,0.821,1.779,1.458,2.848,1.894c1.035,0.421,2.126,0.636,3.242,0.636
			c1.099,0,2.17-0.208,3.184-0.617c1.045-0.421,1.98-1.038,2.782-1.833c0,0,0.468,0.333,0.418,0.383l-45.596,45.608
			c-1.075,1.068-2.257,2.037-3.513,2.88c-1.269,0.853-2.622,1.608-4.026,2.199c-2.919,1.229-6.021,1.875-9.221,1.875H120v8h14.859
			C137.027,132,139.195,131.929,141.303,131.499z"/>
		<rect x="61" y="124" fill="#4D4E53" width="59" height="8"/>
	</g>
</g>
<g id="Layer_13" display="none">
</g>
<g id="Layer_12" display="none">
</g>
</svg>
